:SAMPLES-PER-SECOND 30
:FULLY-SPECIFIED
:DEGREES
317
root  34.77957117 36.50373324 -14.82790549 8.353288651 -6.09352684 3.71903944
lowerback  -9.164158821 -1.274479866 -1.229610085
upperback  -3.805259943 -1.083680034 -3.418809891
thorax  1.149970055 -0.36521101 -2.949350119
lowerneck  -10.83409977 -10.49740028 -8.224829674
upperneck  17.68029976 -14.34839916 9.065629959
head  8.550709724 -6.349219799 2.738630056
lclavicle  0 -4.497500157e-015 -2.743230041e-014
lhumerus  -49.11040115 30.49200058 62.59830093
lradius  0.007069340441 -6.507048965e-006 30.46929932
lwrist  4.824992743e-007 -3.790274832e-007 -28.45590019
lhand  -4.403357898e-031 -36.68650055 -10.5717001
lfingers  90 7.125020027 -90
lthumb  94.69450592 -25.41686336 100.8314207
rclavicle  0 -4.497500157e-015 -2.743230041e-014
rhumerus  -59.25510025 -30.06480026 -28.80770111
rradius  -5.16745672e-007 2.214343908e-008 115.4140015
rwrist  -2.867388866e-005 0.0111028729 174.7579956
rhand  -1.773769959e-031 5.51391983 -5.793630123
rfingers  -90 -7.125020027 -90
rthumb  -83.89505489 -10.09180537 -58.60045054
rfemur  -12.41140842 16.03373909 12.83399296
rtibia  -1.211022496 -1.193048239 21.16339874
rfoot  0.313516736 -22.4624157 -35.08546829
rtoes  3.940523329 19.62356788 -101.5911419
lfemur  -7.517501354 -16.83744431 -20.77854729
ltibia  2.815517902 -1.307331562 14.31868935
lfoot  0.8378477693 -22.65355301 37.90525818
ltoes  -8.603310072 -18.12379643 -115.9367771
318
root  34.78253582 36.5052471 -14.82995852 8.363466263 -6.126761913 3.717497826
lowerback  -8.8082304 -1.314250112 -1.269210339
upperback  -4.042140007 -1.142560005 -3.352309942
thorax  0.7089380026 -0.3901579976 -2.853960037
lowerneck  -10.76480007 -10.32159996 -8.142569542
upperneck  18.00189972 -14.09880066 8.926600456
head  8.605999947 -6.224679947 2.717430115
lclavicle  0 -4.497500157e-015 -2.743230041e-014
lhumerus  -49.4137001 30.14179993 62.6554985
lradius  0.007069340441 -6.507048965e-006 30.61840248
lwrist  4.824992743e-007 -3.790274832e-007 -27.90690041
lhand  -4.402115997e-031 -36.66479874 -10.54539967
lfingers  90 7.125020027 -90
lthumb  94.67896641 -25.39185482 100.8059479
rclavicle  0 -4.497500157e-015 -2.743230041e-014
rhumerus  -59.82009888 -29.64039993 -29.65200233
rradius  -5.16745672e-007 2.214343908e-008 114.8679962
rwrist  -2.867388866e-005 0.0111028729 175.602005
rhand  -1.774179408e-031 5.649240017 -5.99710989
rfingers  -90 -7.125020027 -90
rthumb  -83.96727148 -9.925472596 -58.48667683
rfemur  -12.42519283 16.01021576 12.81578732
rtibia  -1.204146147 -1.211469889 21.15422058
rfoot  0.3134647906 -22.49444008 -35.05201721
rtoes  3.945538642 19.6225983 -101.6060759
lfemur  -7.575051308 -16.86294365 -20.76584053
ltibia  2.77252984 -1.344791055 14.39129829
lfoot  0.8216938376 -22.60982323 37.89037704
ltoes  -8.591107507 -18.12943191 -115.8975555
319
root  34.78773823 36.51016416 -14.83157 8.382156372 -6.165976048 3.715205669
lowerback  -8.484470367 -1.3477 -1.311730027
upperback  -4.249259949 -1.191789985 -3.295870066
thorax  0.3168340027 -0.4102289975 -2.767420053
lowerneck  -10.71310043 -10.16259956 -8.041560173
upperneck  18.2996006 -13.86830044 8.758720398
head  8.65515995 -6.111770153 2.680170059
lclavicle  0 -4.497500157e-015 -2.743230041e-014
lhumerus  -49.75170135 29.95779991 62.62680054
lradius  0.007069340441 -6.507048965e-006 30.74379921
lwrist  4.824992743e-007 -3.790274832e-007 -27.61499977
lhand  -4.402070398e-031 -36.66400146 -10.57660007
lfingers  90 7.125020027 -90
lthumb  94.6850571 -25.42246548 100.8078674
rclavicle  0 -4.497500157e-015 -2.743230041e-014
rhumerus  -60.4571991 -29.32970047 -30.50359917
rradius  -5.16745672e-007 2.214343908e-008 114.2799988
rwrist  -2.867388866e-005 0.0111028729 176.2480011
rhand  -0 5.635829926 -6.110290051
rfingers  -90 -7.125020027 -90
rthumb  -84.03078347 -9.82823646 -58.51001535
rfemur  -12.45519352 16.05334854 12.79275417
rtibia  -1.196336985 -1.205643415 21.15443039
rfoot  0.3144618273 -22.47661209 -35.04634857
rtoes  3.930171541 19.62556507 -101.5603198
lfemur  -7.627877235 -16.85615158 -20.75736618
ltibia  2.733140707 -1.370756507 14.44160271
lfoot  0.80823493 -22.57918358 37.88812256
ltoes  -8.581263807 -18.13397072 -115.8659243
320
root  34.79040852 36.50799248 -14.83274144 8.385149956 -6.212537289 3.711738586
lowerback  -8.339889526 -1.356330037 -1.314879656
upperback  -4.338190079 -1.208389997 -3.254400015
thorax  0.1456770003 -0.4171809852 -2.720390081
lowerneck  -10.81369972 -10.01749992 -7.891689777
upperneck  18.56760025 -13.66049957 8.588330269
head  8.720910072 -6.004980087 2.623920202
lclavicle  0 -4.497500157e-015 -2.743230041e-014
lhumerus  -49.84479904 29.79030037 62.72589874
lradius  0.007069340441 -6.507048965e-006 30.76819801
lwrist  4.824992743e-007 -3.790274832e-007 -27.5366993
lhand  -4.401235534e-031 -36.6493988 -10.56459999
lfingers  90 7.125020027 -90
lthumb  94.67577023 -25.41123837 100.791198
rclavicle  0 -4.497500157e-015 -2.743230041e-014
rhumerus  -60.88059998 -29.06759834 -31.55200195
rradius  -5.16745672e-007 2.214343908e-008 113.7679977
rwrist  -2.867388866e-005 0.0111028729 177.6419983
rhand  -1.774082282e-031 5.617440224 -6.201179981
rfingers  -90 -7.125020027 -90
rthumb  -84.08371726 -9.749719881 -58.53626483
rfemur  -12.47067928 16.03720093 12.77209663
rtibia  -1.186802864 -1.248270392 21.15556526
rfoot  0.3168869317 -22.57673264 -35.01032257
rtoes  3.957488705 19.62028286 -101.6416624
lfemur  -7.655339241 -16.81382751 -20.74551964
ltibia  2.707642555 -1.353499413 14.47495461
lfoot  0.8343993425 -22.64229393 37.94825745
ltoes  -8.55641599 -18.14539887 -115.7861137
321
root  34.7965631 36.50822977 -14.83290965 8.398169518 -6.247826099 3.704848289
lowerback  -8.483329773 -1.366149902 -1.266849756
upperback  -4.241919994 -1.223230004 -3.271379948
thorax  0.3220869899 -0.4278100133 -2.769979954
lowerneck  -11.09319973 -9.875320435 -7.781640053
upperneck  18.80999947 -13.48269939 8.609049797
head  8.831660271 -5.892250061 2.624899864
lclavicle  0 -4.497500157e-015 -2.743230041e-014
lhumerus  -49.68239975 29.82320023 62.78639984
lradius  0.007069340441 -6.507048965e-006 30.71649933
lwrist  4.824992743e-007 -3.790274832e-007 -27.81310081
lhand  -4.400698468e-031 -36.63999939 -10.66769981
lfingers  90 7.125020027 -90
lthumb  94.69273173 -25.51276661 100.7903099
rclavicle  0 -4.497500157e-015 -2.743230041e-014
rhumerus  -61.18000031 -29.20019913 -32.53620529
rradius  -5.16745672e-007 2.214343908e-008 112.8759995
rwrist  -2.867388866e-005 0.0111028729 177.6600037
rhand  -1.775147496e-031 5.956779957 -6.385369778
rfingers  -90 -7.125020027 -90
rthumb  -84.09383662 -9.612356139 -58.2208665
rfemur  -12.49198246 16.07443237 12.75288486
rtibia  -1.177283645 -1.237747312 21.15008926
rfoot  0.3233816326 -22.55124664 -35.00557327
rtoes  3.955532758 19.62066234 -101.6358374
lfemur  -7.73393774 -16.8042202 -20.72020149
ltibia  2.645814657 -1.377088666 14.57211876
lfoot  0.8134468794 -22.64422989 37.90344238
ltoes  -8.567724695 -18.14020283 -115.8224309
